<svg id="Слой_2" data-name="Слой 2" xmlns="http://www.w3.org/2000/svg" viewBox="0 0 128 128"><defs><style>.cls-1{fill:#1c1f30;}.cls-2{fill:#373d59;}.cls-3{fill:#262941;}.cls-4{fill:none;stroke:#262941;stroke-miterlimit:10;stroke-width:3px;}.cls-5{fill:#961e1e;}.cls-6{fill:#fdf3dd;}.cls-7{fill:#5b1212;}.cls-8{fill:#b82720;}</style></defs><title>min-logo</title><rect class="cls-1" width="128" height="128"/><g id="Logo"><g id="BACK"><polygon class="cls-2" points="64.37 6 14.21 34.96 14.21 92.88 64.37 121.84 114.53 92.88 114.53 34.96 64.37 6"/><polygon class="cls-3" points="64.19 16.82 23.25 40.46 23.25 87.74 64.19 111.38 105.14 87.74 105.14 40.46 64.19 16.82"/></g><g id="BACK-frame"><polygon class="cls-4" points="64.22 6.16 14.05 35.12 14.05 93.04 64.22 122 114.38 93.04 114.38 35.12 64.22 6.16"/><polygon class="cls-4" points="64.19 16.82 23.25 40.46 23.25 87.74 64.19 111.38 105.14 87.74 105.14 40.46 64.19 16.82"/><polygon id="_1" data-name="1" class="cls-4" points="64.21 6.34 14.04 35.31 14.04 58.54 84.33 17.96 64.21 6.34"/><polygon id="_2" data-name="2" class="cls-4" points="14.33 35.21 14.33 93.14 34.45 104.76 34.45 23.59 14.33 35.21"/><polygon id="_3" data-name="3" class="cls-4" points="14.36 92.84 64.53 121.81 84.65 110.19 14.36 69.61 14.36 92.84"/><polygon id="_4" data-name="4" class="cls-4" points="64.05 121.84 114.22 92.88 114.22 69.64 43.93 110.22 64.05 121.84"/><polygon id="_5" data-name="5" class="cls-4" points="114.15 93 114.15 35.07 94.03 23.45 94.03 104.62 114.15 93"/><polygon id="_5-2" data-name="5" class="cls-4" points="114.07 35.35 63.9 6.39 43.78 18 114.07 58.59 114.07 35.35"/></g><g id="cube"><g id="Top"><polygon class="cls-5" points="63.57 64.27 25.87 41.76 64.06 20.03 102.47 41.95 63.57 64.27"/><polygon class="cls-6" points="67.89 26.82 67.89 26.82 63.74 24.43 46.52 34.37 46.52 34.37 42.37 36.76 59.6 46.71 59.6 46.71 63.74 49.1 63.74 49.1 67.89 46.71 72.68 43.94 76.83 41.55 76.83 41.55 67.89 36.39 67.89 36.39 63.74 34 63.74 34 59.6 36.39 57.2 37.77 61.35 40.17 63.74 38.78 68.53 41.55 63.74 44.31 50.66 36.76 63.74 29.21 85.12 41.55 63.74 53.88 38.23 39.16 34.08 41.55 59.6 56.28 63.74 58.67 67.89 56.28 89.26 43.94 93.41 41.55 93.41 41.55 67.89 26.82"/></g><g id="S"><polygon class="cls-7" points="64.04 107.89 25.89 85.64 25.89 41.76 63.67 63.87 64.04 107.89"/><polygon class="cls-6" points="29.48 65.32 45.05 85.28 45.08 92.63 29.55 83.7 29.48 65.32"/><polygon class="cls-6" points="60.49 92.65 60.5 92.64 33.34 57.82 33.32 50.4 29.41 48.16 29.45 57.02 29.45 57.02 29.45 57.03 56.68 91.96 56.71 99.32 60.62 101.56 60.58 92.7 60.49 92.65"/><polygon class="cls-6" points="60.55 84.4 44.97 64.44 44.94 57.09 60.48 66.02 60.55 84.4"/></g><g id="M"><polygon class="cls-8" points="101.86 85.78 63.87 107.89 63.67 63.87 102.41 41.9 101.86 85.78"/><polygon class="cls-6" points="98.29 53.87 98.26 48.35 93.77 51.06 67.32 96.3 67.35 101.53 72.1 98.66 98.29 53.87"/><polygon class="cls-6" points="77.76 71.72 67.17 67.11 67.29 89.64 77.76 71.72"/><polygon class="cls-6" points="77.91 95.16 98.43 82.78 98.32 60.24 77.91 95.16"/></g></g></g></svg>